<svg xmlns="http://www.w3.org/2000/svg" width="23" height="24" fill="none"><g clip-path="url(#a)"><path stroke="url(#b)" stroke-width="1.159" d="M1.532 3.855a5.75 5.75 0 0 1 2.187-2.254C4.663 1.03 5.74.754 6.932.754c1.209 0 2.296.276 3.242.847a5.751 5.751 0 0 1 2.188 2.254c.522.958.777 2.027.777 3.195v10.283c0 .433.103.812.303 1.15.208.352.475.625.803.83.343.201.702.299 1.085.299.384 0 .73-.098 1.05-.296.326-.202.58-.471.768-.816l.005-.01.005-.008c.2-.337.303-.716.303-1.149V1.107h3.988V16.95c0 1.168-.256 2.237-.778 3.195a6.034 6.034 0 0 1-2.149 2.278l-.004.003-.004.002c-.927.552-1.995.818-3.184.818-1.19 0-2.265-.266-3.209-.815l-.007-.004-.007-.004a6.032 6.032 0 0 1-2.148-2.278c-.522-.958-.778-2.027-.778-3.195V6.667c0-.433-.103-.811-.303-1.15a2.304 2.304 0 0 0-.827-.826 2.151 2.151 0 0 0-1.12-.303c-.406 0-.774.1-1.113.3-.325.202-.59.473-.798.821-.183.338-.278.72-.278 1.158v16.226H.753V7.05c0-1.168.256-2.237.779-3.195Zm0 0 .5.273"/></g><defs><linearGradient id="b" x1="22.761" x2=".048" y1=".214" y2="24.155" gradientUnits="userSpaceOnUse"><stop stop-color="#5EEAD4"/><stop offset="1" stop-color="#0D9488"/></linearGradient><clipPath id="a"><path fill="#fff" d="M0 0h22.667v24H0z"/></clipPath></defs></svg>
